<?xml version="1.0" encoding="UTF-8"?>
<!DOCTYPE svg PUBLIC "-//W3C//DTD SVG 1.1//EN" "http://www.w3.org/Graphics/SVG/1.1/DTD/svg11.dtd">
<!-- Creator: CorelDRAW -->
<svg xmlns="http://www.w3.org/2000/svg" xml:space="preserve" width="1.3547mm" height="1.3547mm" version="1.1" style="shape-rendering:geometricPrecision; text-rendering:geometricPrecision; image-rendering:optimizeQuality; fill-rule:evenodd; clip-rule:evenodd"
viewBox="0 0 135.46 135.46"
 xmlns:xlink="http://www.w3.org/1999/xlink"
 xmlns:xodm="http://www.corel.com/coreldraw/odm/2003">
 <defs>
  <style type="text/css">
   <![CDATA[
    .fil1 {fill:#FC8506}
    .fil0 {fill:#FC9928}
   ]]>
  </style>
 </defs>
 <g id="Layer_x0020_1">
  <metadata id="CorelCorpID_0Corel-Layer"/>
  <g id="_1178095312608">
   <path class="fil0" d="M17.55 73.32l0 -14.66 11.56 7.88 13.8 9.41 15.45 10.53c0.38,2.68 1.15,4.8 2.3,6.34 1.73,2.36 4.55,3.53 8.46,3.53 2.5,0 4.47,-0.8 5.93,-2.38 1.44,-1.58 2.17,-3.81 2.17,-6.69 0,-0.61 -0.02,-1.19 -0.08,-1.74 -0.24,-2.45 -1,-4.41 -2.27,-5.89 -1.57,-1.82 -4.32,-3.7 -8.25,-5.65 -3.94,-1.95 -7.14,-3.84 -9.64,-5.66 -6.26,-4.53 -10.1,-10.36 -11.54,-17.5 -0.43,-2.13 -0.65,-4.39 -0.65,-6.76 0,-5.11 1,-9.64 3.03,-13.56 2.03,-3.92 4.9,-6.95 8.6,-9.14 3.69,-2.19 7.87,-3.27 12.48,-3.27 4.52,0 8.56,1.19 12.13,3.55 3.57,2.36 6.35,5.74 8.33,10.12 1.81,3.98 3.32,14.78 3.58,20.93l-5.89 -3.8 -10.75 -6.94 0 0c-0.42,-1.84 -0.9,-3.32 -1.39,-3.97 -1.56,-2.09 -3.69,-3.12 -6.35,-3.12 -2.7,0 -4.83,0.89 -6.39,2.64 -0.97,1.08 -1.64,2.36 -2.01,3.82 -0.23,0.89 -0.34,1.86 -0.34,2.89 0,2.39 0.87,4.53 2.58,6.46 1.72,1.93 4.75,3.92 9.09,5.98 4.34,2.06 7.89,4.29 10.67,6.65 4.17,3.55 7.06,7.92 8.67,13.12l15.54 -10.34 29.1 -19.36 -67.47 -46.75 -67.99 46.71 11.71 7.98 0 18.64c-1.7,1.19 -2.85,3.39 -2.85,5.9 0,3.78 2.58,6.85 5.77,6.85 3.19,0 5.77,-3.07 5.77,-6.85 0,-2.51 -1.14,-4.71 -2.85,-5.9z"/>
   <path class="fil1" d="M86.12 105.42c-4.13,4.62 -9.8,6.93 -17.01,6.93 -5.08,0 -9.68,-1.34 -13.8,-4.03 -4.12,-2.68 -7.22,-6.36 -9.31,-11.04 -1.98,-4.45 -3.01,-15.77 -3.1,-22.1l-13.8 -9.4 0 19.79 0 24.94 19.32 12.47 19.31 12.48 19.31 -12.48 19.32 -12.47 0 -24.94 0 -20.23 -15.54 10.33c1,3.25 1.5,6.82 1.5,10.71 0,8.08 -2.07,14.43 -6.2,19.04z"/>
  </g>
 </g>
</svg>
